<svg xmlns="http://www.w3.org/2000/svg" width="149.23" height="44" viewBox="0 0 149.23 44"><path d="M138.75 0H8.28a14.74 14.74 0 00-2.2.19A7.34 7.34 0 004 .9a6.91 6.91 0 00-1.8 1.3A6.68 6.68 0 00.9 4a7.78 7.78 0 00-.69 2.07A14.87 14.87 0 000 8.28v27.43a14.74 14.74 0 00.19 2.2A7.4 7.4 0 00.9 40a6.8 6.8 0 001.3 1.8A6.91 6.91 0 004 43.1a7.34 7.34 0 002.09.69 14.75 14.75 0 002.2.2H141a14.63 14.63 0 002.2-.2 7.4 7.4 0 002.1-.69 6.91 6.91 0 001.7-1.3 7 7 0 001.3-1.77 7.38 7.38 0 00.68-2.1 14.76 14.76 0 00.21-2.2v-1-24.2-2.2a14.89 14.89 0 00-.19-2.26 7.42 7.42 0 00-.67-2.07 7.1 7.1 0 00-3.08-3.1 7.73 7.73 0 00-2.1-.69A13.42 13.42 0 00141 0h-1z" fill="#6b6b6b" fill-rule="evenodd"/><path d="M9.29 43h-1a14.19 14.19 0 01-2-.18 6.4 6.4 0 01-1.82-.61 5.81 5.81 0 01-1.54-1.11 5.63 5.63 0 01-1.12-1.54 6.18 6.18 0 01-.6-1.82A13.15 13.15 0 011 35.7V9.29v-1a12.8 12.8 0 01.18-2.05 6.15 6.15 0 01.6-1.83 5.81 5.81 0 011.09-1.53 6.63 6.63 0 011.55-1.13 6.4 6.4 0 011.81-.59A12.06 12.06 0 018.3 1h132.64a11.63 11.63 0 012 .18 6.3 6.3 0 011.84.6 6.21 6.21 0 012.66 2.66 6.74 6.74 0 01.59 1.81 16.08 16.08 0 01.19 2.08v27.38a15.63 15.63 0 01-.19 2 6.32 6.32 0 01-.59 1.83 6.15 6.15 0 01-2.66 2.65 6.64 6.64 0 01-1.84.61 14.07 14.07 0 01-2 .18H9.29z" fill-rule="evenodd"/><path d="M23.57 30.64a10.94 10.94 0 002-4.21h4.4a10.63 10.63 0 01-6.37 4.21zm-10.89-4.21h4.4a10.94 10.94 0 002 4.21 10.63 10.63 0 01-6.37-4.21zm-.17-12.08H17a24.92 24.92 0 00-.67 5.41h-5.61a10.45 10.45 0 011.79-5.41zM19 9.92a10 10 0 00-1.74 3.44h-4A10.58 10.58 0 0119 9.92zm10.31 3.44h-4a9.67 9.67 0 00-1.75-3.45 10.54 10.54 0 015.78 3.45zm-3.08 6.4a23.74 23.74 0 00-.67-5.41h4.51a10.51 10.51 0 011.79 5.41zm0 1h5.67a10.45 10.45 0 01-1.33 4.7h-4.8a25.09 25.09 0 00.5-4.7zm-1.67-6.4a23.17 23.17 0 01.68 5.41h-7.9a23.13 23.13 0 01.66-5.42zm-3.25-4.7c1.09 0 2.22 1.36 3 3.7h-6c.78-2.34 1.91-3.7 3-3.7zM10.72 20.75h5.63a25.09 25.09 0 00.5 4.7h-4.8a10.58 10.58 0 01-1.33-4.7zm7.12 4.7a24.91 24.91 0 01-.5-4.7h7.94a24.11 24.11 0 01-.5 4.7zm3.47 5.44c-1.2 0-2.45-1.66-3.23-4.46h6.46c-.77 2.8-2 4.46-3.23 4.46zm0-22.22a11.61 11.61 0 000 23.21 11.61 11.61 0 100-23.21z" fill="#fff" fill-rule="evenodd"/><path d="M24.19 19.42v13.2l3.3-3.3 2.75 5.5s.75.23 1.1 0 .71-.72.55-1.1c-.75-1.82-2.75-5.5-2.75-5.5H33z" fill="#fff" fill-rule="evenodd"/><path d="M24.19 18.32a1 1 0 00-.42.08 1.1 1.1 0 00-.68 1v13.2a1.1 1.1 0 00.68 1 1.07 1.07 0 001.2-.24l2.22-2.22 2.07 4.14a1.11 1.11 0 00.65.55 3.3 3.3 0 001 .16 1.88 1.88 0 001.09-.26 2.09 2.09 0 001-2.44c-.45-1.07-1.29-2.74-1.94-4h2a1.1 1.1 0 00.78-1.88L25 18.64a1.1 1.1 0 00-.78-.32m0 1.1l8.8 8.8h-3.88s2 3.68 2.75 5.5c.16.38-.19.86-.55 1.1a.8.8 0 01-.44.1 2.61 2.61 0 01-.66-.1l-2.75-5.5-3.3 3.3v-13.2" fill-rule="evenodd"/><path d="M46.62 8.7v3.78a2.57 2.57 0 01-.69 1.94 2.75 2.75 0 01-3.6 0 2.54 2.54 0 01-.71-1.94V8.7h1v3.79a1.74 1.74 0 00.38 1.23 1.41 1.41 0 001.09.44 1.39 1.39 0 001.08-.44 1.74 1.74 0 00.41-1.23V8.7zM52.2 13.39a1.48 1.48 0 01-.59 1.26 2.56 2.56 0 01-1.55.44 2.33 2.33 0 01-1.68-.57 2 2 0 01-.62-1.52h1a1.26 1.26 0 00.35.88 1.39 1.39 0 001 .32 1.45 1.45 0 00.82-.21.74.74 0 00.32-.64.89.89 0 00-.31-.68 3.61 3.61 0 00-1.1-.53 4.16 4.16 0 01-1.37-.7 1.4 1.4 0 01-.47-1.07 1.6 1.6 0 01.56-1.28A2.14 2.14 0 0150 8.61a2.08 2.08 0 011.53.55 1.84 1.84 0 01.59 1.33h-.91a1.15 1.15 0 00-.33-.73 1.22 1.22 0 00-.88-.3 1.13 1.13 0 00-.74.23.77.77 0 00-.28.61.74.74 0 00.3.61 4.08 4.08 0 001 .48 4 4 0 011.46.81 1.53 1.53 0 01.46 1.19zM54.33 14.11h3.19V15h-4.13V8.7h4v.88h-3.1v1.8h2.72v.85h-2.68zM61.83 8.7V15h-1V8.7zM67.46 8.7h.94V15h-1l-3.1-4.61h-.08V15h-.94V8.7h1l3 4.58h.09zM75.94 8.7h1.15l-2.22 3.4V15h-1v-2.9l-2.25-3.4h1.15l1.54 2.35h.08zM80.36 15.09a3 3 0 01-2.25-.93 3.19 3.19 0 01-.9-2.31 3.19 3.19 0 01.9-2.31 3 3 0 012.25-.93 3 3 0 012.23.93 3.19 3.19 0 01.9 2.31 3.19 3.19 0 01-.9 2.31 3 3 0 01-2.23.93zm-1.53-1.6a2.09 2.09 0 003 0 2.35 2.35 0 00.6-1.64 2.32 2.32 0 00-.61-1.64 2 2 0 00-1.51-.66 2 2 0 00-1.53.66 2.51 2.51 0 000 3.28zM89.64 8.7v3.78a2.57 2.57 0 01-.64 1.94 2.75 2.75 0 01-3.6 0 2.54 2.54 0 01-.71-1.94V8.7h1v3.79a1.74 1.74 0 00.41 1.23 1.41 1.41 0 001.09.44 1.39 1.39 0 001.08-.44 1.74 1.74 0 00.41-1.23V8.7zM95.6 15h-1l-1.42-2.48H92V15h-.93V8.7h2.21a2.16 2.16 0 011.5.51 1.76 1.76 0 01.57 1.38 1.82 1.82 0 01-1.28 1.77zM92 9.58v2.05h1.16a1.28 1.28 0 00.89-.28 1 1 0 00.32-.75.94.94 0 00-.32-.75 1.33 1.33 0 00-.89-.27zM53.3 21.8H55L52.74 33H50.3l-2.1-8h-.14L46 33h-2.49L41.3 21.8H43l1.76 9.07h.15L47 22.6h2.19l2.15 8.27h.14zM59.22 24.84A3.63 3.63 0 0162 26a4.46 4.46 0 01.93 3.41H57a2.8 2.8 0 00.71 1.74 2.25 2.25 0 001.71.63 2.44 2.44 0 001.21-.3 1.77 1.77 0 00.77-.87h1.59a3.09 3.09 0 01-1.28 1.89 4 4 0 01-2.31.67A3.8 3.8 0 0156.44 32a4.31 4.31 0 01-1.07-3 4.14 4.14 0 011.09-3 3.65 3.65 0 012.76-1.16zM57 28.17h4.4a2 2 0 00-2.13-2 2.18 2.18 0 00-1.48.53 2.5 2.5 0 00-.79 1.47zM68.57 24.84A3.46 3.46 0 0171.22 26a4.22 4.22 0 011.08 3 4.33 4.33 0 01-1 3 3.39 3.39 0 01-2.61 1.16 2.86 2.86 0 01-2.45-1.22H66L65.78 33h-1.23V21.61h1.62v4.46a2.52 2.52 0 012.4-1.23zm-1.79 6.09a2 2 0 001.61.74 2 2 0 001.61-.75 2.84 2.84 0 00.66-1.92 2.89 2.89 0 00-.66-1.93 2.07 2.07 0 00-1.64-.74 2 2 0 00-1.61.74 3.36 3.36 0 000 3.86zM83.91 27.11a2.75 2.75 0 012.18 2.82 2.68 2.68 0 01-1 2.29 4.26 4.26 0 01-2.61.78h-4.1V21.8H82a4.11 4.11 0 012.54.73 2.43 2.43 0 011 2.07 2.36 2.36 0 01-1.63 2.4zM80 23.27v3.22h2a2.07 2.07 0 001.41-.44 1.55 1.55 0 00.5-1.21 1.38 1.38 0 00-.52-1.16 2.12 2.12 0 00-1.39-.41zm2.16 8.26a2.58 2.58 0 001.62-.47 1.56 1.56 0 00.59-1.29 1.73 1.73 0 00-.58-1.35 2.28 2.28 0 00-1.58-.52H80v3.63zM91.62 24.84h.53v1.66a2.86 2.86 0 00-.72-.08 2.12 2.12 0 00-1.57.67 2.78 2.78 0 00-.64 2V33h-1.69v-8h1.29l.26 1.12h.14a2.76 2.76 0 012.4-1.28zM97 33.16A4 4 0 0194.05 32a4.06 4.06 0 01-1.18-3A4 4 0 0194 26a3.93 3.93 0 013-1.16 4 4 0 014.1 4.16 4 4 0 01-1.17 3A4 4 0 0197 33.16zm-1.77-2.25a2.26 2.26 0 001.77.78 2.23 2.23 0 001.77-.78 3 3 0 000-3.81 2.38 2.38 0 00-3.53 0 3.06 3.06 0 000 3.82zM111.45 25H113l-1.9 8h-2l-1.49-5.71h-.14L105.9 33h-2l-1.9-8h1.55l1.37 6.26h.15l1.5-5.7h1.87l1.52 5.7h.15zM120.2 30.89a1.93 1.93 0 01-.85 1.67 3.63 3.63 0 01-2.16.6 3.41 3.41 0 01-2.33-.77 2.62 2.62 0 01-.92-2h1.6a1.35 1.35 0 00.52 1.11 2 2 0 001.16.36 1.67 1.67 0 001-.25.81.81 0 00.39-.72.94.94 0 00-.45-.82 5 5 0 00-1.31-.56 6.37 6.37 0 01-.73-.23 6.74 6.74 0 01-.69-.32 2.72 2.72 0 01-.61-.43 2 2 0 01-.41-.59 1.85 1.85 0 01-.17-.78 2 2 0 01.82-1.68 3.21 3.21 0 012.06-.64 3.09 3.09 0 012.1.7 2.44 2.44 0 01.83 1.73h-1.55a1.13 1.13 0 00-.44-.83 1.56 1.56 0 00-1-.32 1.35 1.35 0 00-.84.25.8.8 0 00-.33.68.86.86 0 00.39.73 4.76 4.76 0 001.27.55 5.35 5.35 0 012 1 2 2 0 01.65 1.56zM125.26 24.84A3.62 3.62 0 01128 26a4.46 4.46 0 011 3.4h-6a2.8 2.8 0 00.71 1.74 2.25 2.25 0 001.71.63 2.44 2.44 0 001.21-.3 1.77 1.77 0 00.77-.87h1.6a3 3 0 01-1.28 1.89 4 4 0 01-2.31.67 3.82 3.82 0 01-2.94-1.16 4.31 4.31 0 01-1.07-3 4.1 4.1 0 011.1-3 3.65 3.65 0 012.76-1.16zm-2.21 3.33h4.38a2 2 0 00-2.13-2 2.18 2.18 0 00-1.48.53 2.5 2.5 0 00-.77 1.47zM134.68 24.84h.53v1.66a2.86 2.86 0 00-.72-.08 2.12 2.12 0 00-1.57.67 2.74 2.74 0 00-.64 2V33h-1.7v-8h1.3l.26 1.12h.14a2.76 2.76 0 012.4-1.28z" fill="#fff"/></svg>