<svg width="140" height="44" viewBox="0 0 140 44" xmlns="http://www.w3.org/2000/svg"><g fill="none" fill-rule="evenodd"><path d="M128.676 0H10.488c-.403 0-.802 0-1.204.002-.337.002-.67.009-1.01.014-.74.009-1.476.074-2.205.195A7.332 7.332 0 003.978.9 7.082 7.082 0 00.214 6.073a14.292 14.292 0 00-.197 2.202C.007 8.613.005 8.95 0 9.289v25.425c.005.342.006.673.017 1.015.008.738.074 1.474.197 2.202.12.729.353 1.435.687 2.094a6.829 6.829 0 001.296 1.776c.52.525 1.122.963 1.78 1.297a7.37 7.37 0 002.092.694 14.8 14.8 0 002.204.194c.34.008.674.012 1.01.012.403.002.802.002 1.205.002h118.188c.395 0 .797 0 1.192-.002.336 0 .68-.004 1.015-.012.737-.01 1.472-.074 2.2-.194a7.485 7.485 0 002.099-.694 6.905 6.905 0 001.778-1.297c.524-.52.963-1.12 1.3-1.776.332-.66.562-1.366.681-2.094.123-.728.191-1.464.204-2.202.005-.342.005-.673.005-1.015.008-.4.008-.797.008-1.203V10.49c0-.403 0-.803-.008-1.201 0-.338 0-.676-.005-1.013a14.858 14.858 0 00-.204-2.202 7.28 7.28 0 00-.68-2.094A7.113 7.113 0 00135.18.9a7.444 7.444 0 00-2.098-.69 14.348 14.348 0 00-2.2-.194c-.336-.005-.68-.012-1.015-.014C129.473 0 129.071 0 128.676 0z" fill="#A6A6A6"/><path d="M9.29 43.038c-.336 0-.663-.005-.995-.012a13.956 13.956 0 01-2.056-.18 6.472 6.472 0 01-1.823-.602 5.946 5.946 0 01-1.537-1.119 5.853 5.853 0 01-1.122-1.536 6.294 6.294 0 01-.597-1.823 13.655 13.655 0 01-.184-2.062C.97 35.472.96 34.699.96 34.699V9.29s.01-.76.016-.984c.009-.69.07-1.379.183-2.06a6.331 6.331 0 01.597-1.828 6.122 6.122 0 012.66-2.662 6.405 6.405 0 011.818-.599 13.844 13.844 0 012.063-.18L9.29.963h120.573l1.004.013c.685.009 1.369.068 2.045.18.639.108 1.258.311 1.838.602a6.153 6.153 0 012.656 2.662c.287.571.485 1.183.589 1.814.114.686.178 1.38.191 2.076.003.311.003.646.003.979.009.412.009.805.009 1.2v23.022c0 .4 0 .79-.009 1.183 0 .358 0 .685-.004 1.023a14.004 14.004 0 01-.188 2.039 6.313 6.313 0 01-.594 1.837 6.028 6.028 0 01-1.117 1.524c-.45.455-.97.835-1.54 1.125a6.448 6.448 0 01-1.834.604c-.68.111-1.368.171-2.056.18-.323.007-.66.011-.988.011l-1.192.003-119.387-.002z" fill="#000"/><g fill="#FFF"><path d="M27.249 22.33a5.444 5.444 0 012.592-4.567 5.572 5.572 0 00-4.39-2.373c-1.847-.194-3.638 1.105-4.58 1.105-.959 0-2.408-1.086-3.969-1.054a5.847 5.847 0 00-4.92 3.001c-2.127 3.683-.54 9.096 1.497 12.074 1.02 1.458 2.212 3.086 3.77 3.028 1.527-.063 2.096-.973 3.938-.973 1.825 0 2.36.973 3.95.937 1.638-.027 2.67-1.465 3.653-2.936a12.058 12.058 0 001.67-3.402 5.26 5.26 0 01-3.211-4.84zM24.244 13.432a5.36 5.36 0 001.226-3.84 5.453 5.453 0 00-3.528 1.826 5.1 5.1 0 00-1.258 3.697 4.509 4.509 0 003.56-1.683z"/><g><path d="M39.22 16.172v-5.636h-2.064v-.928h5.145v.928h-2.06v5.636z"/><path d="M47.041 14.834a2.01 2.01 0 01-2.146 1.433 2.25 2.25 0 01-2.288-2.556 2.285 2.285 0 012.284-2.588c1.378 0 2.21.942 2.21 2.497v.341h-3.498v.055a1.31 1.31 0 001.319 1.419c.478.057.943-.18 1.178-.6h.941zm-3.438-1.596h2.501a1.195 1.195 0 00-1.219-1.283 1.267 1.267 0 00-1.282 1.283zm.7-2.848l1.142-1.564h1.146l-1.278 1.564h-1.01z" fill-rule="nonzero"/><path d="M48.458 9.285h.978v6.887h-.978z"/><path d="M55.229 14.834a2.01 2.01 0 01-2.146 1.433 2.25 2.25 0 01-2.289-2.556 2.285 2.285 0 012.284-2.588c1.378 0 2.21.942 2.21 2.497v.341H51.79v.055a1.31 1.31 0 001.32 1.419c.478.057.943-.18 1.178-.6h.94zm-3.439-1.596h2.502a1.195 1.195 0 00-1.22-1.283 1.267 1.267 0 00-1.282 1.283zm.7-2.848l1.142-1.564h1.147L53.5 10.39h-1.01z" fill-rule="nonzero"/><path d="M59.844 12.837a1.106 1.106 0 00-1.17-.84c-.819 0-1.32.627-1.32 1.682 0 1.074.506 1.715 1.32 1.715a1.077 1.077 0 001.17-.814h.95a1.938 1.938 0 01-2.115 1.687 2.275 2.275 0 01-2.324-2.588 2.258 2.258 0 012.319-2.556 1.955 1.955 0 012.12 1.714h-.95zM62.092 9.285h.969v2.73h.077c.267-.585.87-.94 1.51-.888a1.632 1.632 0 011.706 1.847v3.198h-.978v-2.957c0-.791-.369-1.192-1.06-1.192a1.157 1.157 0 00-1.247 1.256v2.893h-.977V9.285z"/><path d="M67.583 14.771c0-.892.664-1.406 1.843-1.479l1.341-.077v-.427c0-.524-.346-.82-1.014-.82-.545 0-.924.201-1.032.551h-.946c.1-.85.9-1.396 2.023-1.396 1.242 0 1.942.618 1.942 1.665v3.384h-.94v-.696h-.078c-.32.508-.888.805-1.487.777a1.496 1.496 0 01-1.652-1.482zm3.184-.423v-.414l-1.21.077c-.681.046-.99.278-.99.714 0 .446.386.706.918.706a1.168 1.168 0 001.282-1.083z" fill-rule="nonzero"/><path d="M73.27 11.219h.942v.76h.073c.216-.542.756-.882 1.337-.843.147-.002.293.012.436.041v.965a2.678 2.678 0 00-.545-.06 1.16 1.16 0 00-1.265 1.165v2.925h-.977v-4.953z"/><path d="M76.958 16.668h1c.082.359.496.59 1.156.59.814 0 1.296-.386 1.296-1.04v-.951h-.073a1.666 1.666 0 01-1.529.832c-1.264 0-2.046-.978-2.046-2.46 0-1.511.79-2.503 2.056-2.503.641-.022 1.241.315 1.556.874h.077v-.791h.937v4.994c0 1.132-.888 1.851-2.288 1.851-1.238 0-2.038-.555-2.142-1.396zm3.47-3.035c0-.986-.51-1.618-1.342-1.618-.842 0-1.314.632-1.314 1.618 0 .988.472 1.62 1.314 1.62.838 0 1.342-.628 1.342-1.62zM87.134 14.834a2.01 2.01 0 01-2.147 1.433 2.25 2.25 0 01-2.288-2.556 2.285 2.285 0 012.284-2.588c1.378 0 2.21.942 2.21 2.497v.341h-3.498v.055a1.31 1.31 0 001.32 1.419c.477.057.943-.18 1.178-.6h.94zm-3.439-1.596h2.502a1.195 1.195 0 00-1.22-1.283 1.267 1.267 0 00-1.282 1.283z" fill-rule="nonzero"/><path d="M88.505 11.219h.942v.76h.073c.216-.542.756-.882 1.337-.843.146-.002.293.012.436.041v.965a2.678 2.678 0 00-.546-.06 1.16 1.16 0 00-1.264 1.165v2.925h-.978v-4.953z"/><path d="M94.815 13.693c0-1.565.805-2.557 2.056-2.557.632-.029 1.224.31 1.52.87h.072V9.284h.978v6.887h-.937v-.783h-.077a1.72 1.72 0 01-1.556.864c-1.26 0-2.056-.991-2.056-2.56zm1.01 0c0 1.05.495 1.683 1.324 1.683.824 0 1.333-.641 1.333-1.679 0-1.032-.515-1.682-1.333-1.682-.823 0-1.324.636-1.324 1.678zM100.762 14.771c0-.892.664-1.406 1.843-1.479l1.341-.077v-.427c0-.524-.346-.82-1.014-.82-.546 0-.924.201-1.032.551h-.947c.1-.85.9-1.396 2.024-1.396 1.242 0 1.942.618 1.942 1.665v3.384h-.94v-.696h-.078c-.32.508-.888.805-1.488.777a1.496 1.496 0 01-1.65-1.482zm3.184-.423v-.414l-1.21.077c-.681.046-.99.278-.99.714 0 .446.386.706.918.706a1.168 1.168 0 001.282-1.083z" fill-rule="nonzero"/><path d="M106.45 11.219h.941v.786h.073c.254-.579.848-.933 1.478-.882a1.611 1.611 0 011.715 1.842v3.207h-.978V13.21c0-.796-.345-1.192-1.068-1.192a1.136 1.136 0 00-1.183 1.255v2.898h-.978v-4.953zM113.98 11.123c1.113 0 1.842.518 1.937 1.392h-.937c-.09-.364-.446-.596-1-.596-.546 0-.96.259-.96.646 0 .296.25.482.787.605l.822.19c.942.22 1.384.624 1.384 1.352 0 .932-.869 1.555-2.052 1.555-1.178 0-1.946-.532-2.033-1.41h.978c.174.43.619.686 1.078.619.609 0 1.042-.273 1.042-.669 0-.295-.232-.487-.729-.605l-.863-.2c-.942-.223-1.378-.646-1.378-1.383 0-.878.804-1.496 1.923-1.496z"/></g></g><g fill="#FFF"><path d="M38.718 19.874h2.045v13.66h-2.045zM43.228 24.872l1.117-4.998h1.987l-1.353 4.998z"/><path d="M54.061 29.842h-5.207l-1.25 3.692h-2.205l4.931-13.66h2.292l4.931 13.66H55.31l-1.249-3.692zm-4.667-1.704h4.127l-2.035-5.992h-.057l-2.035 5.992zM68.203 28.555c0 3.095-1.656 5.083-4.156 5.083a3.376 3.376 0 01-3.133-1.742h-.048v4.933h-2.044V23.574h1.979v1.657h.037a3.533 3.533 0 013.171-1.76c2.528 0 4.194 1.997 4.194 5.084zm-2.1 0c0-2.017-1.043-3.343-2.633-3.343-1.562 0-2.612 1.354-2.612 3.343 0 2.007 1.05 3.35 2.612 3.35 1.59 0 2.632-1.316 2.632-3.35zM79.164 28.555c0 3.095-1.656 5.083-4.156 5.083a3.376 3.376 0 01-3.134-1.742h-.047v4.933h-2.044V23.574h1.979v1.657h.037a3.533 3.533 0 013.171-1.76c2.528 0 4.194 1.997 4.194 5.084zm-2.101 0c0-2.017-1.042-3.343-2.632-3.343-1.562 0-2.612 1.354-2.612 3.343 0 2.007 1.05 3.35 2.612 3.35 1.59 0 2.632-1.316 2.632-3.35z" fill-rule="nonzero"/><path d="M86.409 29.728c.151 1.355 1.467 2.244 3.265 2.244 1.723 0 2.963-.89 2.963-2.11 0-1.061-.748-1.696-2.518-2.131l-1.77-.427c-2.509-.606-3.673-1.779-3.673-3.682 0-2.357 2.054-3.976 4.97-3.976 2.887 0 4.865 1.619 4.932 3.976h-2.064c-.123-1.364-1.25-2.186-2.897-2.186-1.647 0-2.773.832-2.773 2.044 0 .965.72 1.534 2.48 1.969l1.505.37c2.803.662 3.967 1.788 3.967 3.786 0 2.556-2.036 4.157-5.273 4.157-3.03 0-5.075-1.563-5.207-4.034h2.093zM99.209 21.217v2.357h1.894v1.62h-1.894v5.49c0 .853.38 1.25 1.212 1.25.225-.004.449-.02.672-.047v1.61c-.374.07-.755.1-1.135.094-2.017 0-2.803-.758-2.803-2.689v-5.709h-1.448v-1.619h1.448v-2.357h2.054z"/><path d="M102.199 28.555c0-3.134 1.845-5.103 4.723-5.103 2.887 0 4.724 1.969 4.724 5.103 0 3.142-1.827 5.102-4.724 5.102-2.896 0-4.723-1.96-4.723-5.102zm7.364 0c0-2.15-.985-3.419-2.641-3.419-1.657 0-2.64 1.279-2.64 3.419 0 2.158.983 3.417 2.64 3.417 1.656 0 2.641-1.259 2.641-3.417z" fill-rule="nonzero"/><path d="M113.332 23.574h1.95v1.695h.047a2.375 2.375 0 012.395-1.799c.236 0 .47.025.7.076v1.912a2.858 2.858 0 00-.918-.123 2.06 2.06 0 00-2.13 2.292v5.907h-2.044v-9.96z"/><path d="M127.849 30.609c-.275 1.808-2.036 3.048-4.289 3.048-2.897 0-4.695-1.94-4.695-5.055 0-3.124 1.808-5.15 4.61-5.15 2.755 0 4.488 1.893 4.488 4.913v.7h-7.034v.124a2.594 2.594 0 002.679 2.82 2.253 2.253 0 002.3-1.4h1.94zm-6.91-2.973h4.978a2.395 2.395 0 00-2.443-2.528 2.521 2.521 0 00-2.536 2.528z" fill-rule="nonzero"/></g></g></svg>