<svg width="149" height="44" viewBox="0 0 149 44" xmlns="http://www.w3.org/2000/svg"><defs><linearGradient x1="91.495%" y1="4.946%" x2="-38.237%" y2="71.879%" id="app-google_en_svg__a"><stop stop-color="#00A0FF" offset="0%"/><stop stop-color="#00A1FF" offset="1%"/><stop stop-color="#00BEFF" offset="26%"/><stop stop-color="#00D2FF" offset="51%"/><stop stop-color="#00DFFF" offset="76%"/><stop stop-color="#00E3FF" offset="100%"/></linearGradient><linearGradient x1="107.685%" y1="50%" x2="-130.64%" y2="50%" id="app-google_en_svg__b"><stop stop-color="#FFE000" offset="0%"/><stop stop-color="#FFBD00" offset="41%"/><stop stop-color="orange" offset="78%"/><stop stop-color="#FF9C00" offset="100%"/></linearGradient><linearGradient x1="86.271%" y1="17.871%" x2="-50.18%" y2="194.64%" id="app-google_en_svg__c"><stop stop-color="#FF3A44" offset="0%"/><stop stop-color="#C31162" offset="100%"/></linearGradient><linearGradient x1="-18.825%" y1="-54.03%" x2="42.086%" y2="24.928%" id="app-google_en_svg__d"><stop stop-color="#32A071" offset="0%"/><stop stop-color="#2DA771" offset="7%"/><stop stop-color="#15CF74" offset="48%"/><stop stop-color="#06E775" offset="80%"/><stop stop-color="#00F076" offset="100%"/></linearGradient></defs><g fill="none" fill-rule="evenodd"><rect fill="#000" width="148.5" height="44" rx="5"/><path d="M143 .88a4.62 4.62 0 014.62 4.62v33a4.62 4.62 0 01-4.62 4.62H5.5A4.62 4.62 0 01.88 38.5v-33A4.62 4.62 0 015.5.88H143zm0-.88H5.5A5.5 5.5 0 000 5.5v33A5.5 5.5 0 005.5 44H143a5.5 5.5 0 005.5-5.5v-33A5.5 5.5 0 00143 0z" fill="#A6A6A6" fill-rule="nonzero"/><path d="M52.162 11.264a2.992 2.992 0 01-.825 2.2 3.19 3.19 0 01-2.42.968 3.3 3.3 0 01-2.431-.99 3.509 3.509 0 010-4.906 3.476 3.476 0 013.784-.715c.397.163.75.415 1.034.737l-.583.583a2.2 2.2 0 00-1.804-.792 2.64 2.64 0 101.848 4.543c.336-.368.53-.844.55-1.342h-2.398v-.792h3.201c.025.168.04.337.044.506zM57.2 8.514h-2.97v2.09h2.706v.792H54.23v2.09h2.97v.814h-3.828V7.7H57.2zM60.808 14.3h-.847V8.514h-1.848V7.7H62.7v.814h-1.892zM65.934 14.3V7.7h.847v6.6zM70.543 14.3h-.847V8.514h-1.848V7.7h4.532v.814h-1.837z" stroke="#FFF" stroke-width=".2" fill="#FFF"/><path d="M80.971 13.442a3.421 3.421 0 01-4.84 0 3.564 3.564 0 010-4.884 3.223 3.223 0 012.42-1.001 3.3 3.3 0 012.42 1.001c.639.65.988 1.53.968 2.442a3.3 3.3 0 01-.968 2.442zm-4.213-.55a2.519 2.519 0 003.586 0 2.794 2.794 0 000-3.784 2.519 2.519 0 00-3.586 0 2.794 2.794 0 000 3.784z" stroke="#FFF" stroke-width=".2" fill="#FFF" fill-rule="nonzero"/><path stroke="#FFF" stroke-width=".2" fill="#FFF" d="M83.138 14.3V7.7h1.023l3.212 5.137h0V7.7h.847v6.6h-.88l-3.355-5.379h0V14.3z"/><path d="M74.954 23.925a4.686 4.686 0 104.697 4.675 4.609 4.609 0 00-4.697-4.675zm0 7.513a2.838 2.838 0 112.64-2.838 2.706 2.706 0 01-2.64 2.838zm-10.252-7.513a4.686 4.686 0 104.697 4.675 4.609 4.609 0 00-4.697-4.675zm0 7.513a2.838 2.838 0 112.64-2.838 2.706 2.706 0 01-2.64 2.838zm-12.188-6.072v1.98h4.752a4.147 4.147 0 01-1.1 2.497 4.862 4.862 0 01-3.674 1.452 5.28 5.28 0 110-10.56 5.104 5.104 0 013.608 1.419l1.397-1.397a6.93 6.93 0 00-4.983-2.002 7.271 7.271 0 100 14.531 6.677 6.677 0 005.071-2.035 6.6 6.6 0 001.716-4.653 6.897 6.897 0 00-.099-1.232h-6.688zm49.841 1.54a4.4 4.4 0 00-4.004-2.981 4.4 4.4 0 00-4.4 4.675 4.653 4.653 0 008.536 2.607l-1.595-1.1a2.651 2.651 0 01-2.299 1.287 2.365 2.365 0 01-2.266-1.419l6.259-2.585-.231-.484zm-6.38 1.562a2.574 2.574 0 012.453-2.739 1.804 1.804 0 011.727 1.001l-4.18 1.738zM90.893 33h2.057V19.25h-2.057V33zm-3.366-8.03h-.077a3.234 3.234 0 00-2.464-1.1 4.686 4.686 0 000 9.361 3.168 3.168 0 002.464-1.1h.077v.671c0 1.793-.957 2.75-2.497 2.75a2.596 2.596 0 01-2.365-1.661l-1.782.737A4.4 4.4 0 0085.03 37.4c2.409 0 4.4-1.419 4.4-4.873V24.2h-1.903v.77zm-2.365 6.468a2.838 2.838 0 010-5.665A2.629 2.629 0 0187.67 28.6a2.618 2.618 0 01-2.508 2.838zm26.829-12.188h-4.928V33h2.057v-5.214h2.871a4.279 4.279 0 100-8.536zm0 6.6h-2.871v-4.686h2.915a2.354 2.354 0 010 4.708l-.044-.022zm12.694-1.969a3.839 3.839 0 00-3.663 2.101l1.815.759a1.958 1.958 0 011.881-1.001 1.98 1.98 0 012.2 1.771v.132a4.598 4.598 0 00-2.145-.528c-1.958 0-3.96 1.1-3.96 3.102a3.179 3.179 0 003.421 3.025 2.915 2.915 0 002.618-1.342h.066V33h1.98v-5.291c0-2.409-1.826-3.806-4.169-3.806l-.044-.022zm-.253 7.535c-.671 0-1.606-.341-1.606-1.166 0-1.1 1.166-1.474 2.2-1.474.653-.016 1.3.143 1.87.462a2.486 2.486 0 01-2.42 2.2l-.044-.022zm11.682-7.216l-2.354 5.962h-.066l-2.442-5.962h-2.2l3.663 8.338-2.09 4.631h2.145l5.632-12.969h-2.288zm-18.48 8.8h2.046V19.25h-2.046V33z" fill="#FFF" fill-rule="nonzero"/><path d="M11.484 8.294a2.2 2.2 0 00-.517 1.54v24.332a2.134 2.134 0 00.517 1.54l.077.088L25.19 22.165v-.33L11.561 8.217l-.077.077z" fill="url(#app-google_en_svg__a)"/><path d="M29.7 26.708l-4.51-4.543v-.33l4.51-4.543.099.066 5.401 3.058c1.54.869 1.54 2.299 0 3.179l-5.379 3.058-.121.055z" fill="url(#app-google_en_svg__b)"/><path d="M29.832 26.642L25.19 22 11.484 35.706c.641.57 1.599.603 2.277.077l16.071-9.141" fill="url(#app-google_en_svg__c)"/><path d="M29.832 17.358l-16.071-9.13a1.771 1.771 0 00-2.277.066L25.19 22l4.642-4.642z" fill="url(#app-google_en_svg__d)"/><path d="M29.7 26.543l-15.939 9.075a1.826 1.826 0 01-2.2 0l-.077.077.077.088a1.826 1.826 0 002.2 0l16.071-9.141-.132-.099z" fill="#000" opacity=".2"/><path d="M11.484 35.552A2.2 2.2 0 0111 34.001v.165a2.134 2.134 0 00.517 1.54l.077-.077-.11-.077zM35.2 23.43l-5.5 3.113.099.099 5.401-3.058A1.925 1.925 0 0036.366 22a2.046 2.046 0 01-1.166 1.43z" fill="#000" opacity=".12"/><path d="M13.761 8.382L35.2 20.57A2.046 2.046 0 0136.366 22a1.925 1.925 0 00-1.166-1.584L13.761 8.228c-1.529-.88-2.794-.154-2.794 1.606v.165c.033-1.76 1.265-2.486 2.794-1.617z" fill="#FFF" opacity=".25"/></g></svg>