<svg width="150" height="44" viewBox="0 0 150 44" xmlns="http://www.w3.org/2000/svg"><g fill="none" fill-rule="evenodd"><path d="M138.748 0H10.488c-.403 0-.803 0-1.204.002-.338.002-.671.01-1.011.014-.738.01-1.475.074-2.204.195a7.078 7.078 0 00-3.871 1.986A6.904 6.904 0 00.9 3.98a7.293 7.293 0 00-.686 2.094 14.257 14.257 0 00-.196 2.202C.007 8.613.006 8.951 0 9.29v25.425c.004.342.005.673.017 1.014.007.738.073 1.475.196 2.203.12.73.353 1.435.686 2.094a6.852 6.852 0 001.297 1.776c.52.525 1.121.962 1.78 1.297a7.4 7.4 0 002.092.693c.729.12 1.466.185 2.204.195.34.007.674.012 1.01.012.402.002.802.002 1.205.002h128.26c.395 0 .798 0 1.192-.002.335 0 .68-.005 1.014-.012a14.481 14.481 0 002.2-.195 7.505 7.505 0 002.1-.693 6.948 6.948 0 001.779-1.297 7.033 7.033 0 001.3-1.776 7.291 7.291 0 00.68-2.094c.123-.728.19-1.464.204-2.203.004-.34.004-.672.004-1.014.008-.399.008-.797.008-1.203v-23.02c0-.404 0-.804-.008-1.202 0-.338 0-.676-.004-1.013a15.076 15.076 0 00-.204-2.203 7.316 7.316 0 00-.68-2.093 7.123 7.123 0 00-3.08-3.08 7.467 7.467 0 00-2.098-.69 14.354 14.354 0 00-2.2-.194c-.336-.005-.68-.012-1.016-.014C139.547 0 139.144 0 138.749 0z" fill="#6B6B6B"/><path d="M9.29 43.038c-.335 0-.662-.005-.995-.012a14.02 14.02 0 01-2.056-.18 6.474 6.474 0 01-1.822-.602 5.94 5.94 0 01-1.537-1.118 5.831 5.831 0 01-1.122-1.536 6.315 6.315 0 01-.599-1.824 13.587 13.587 0 01-.182-2.063C.97 35.471.96 34.7.96 34.7V9.29s.01-.76.016-.984c.008-.69.069-1.378.182-2.06a6.336 6.336 0 01.597-1.827 6.14 6.14 0 012.659-2.663 6.417 6.417 0 011.819-.599 13.726 13.726 0 012.063-.18L9.29.964h130.646l1.004.014c.686.008 1.369.068 2.044.178a6.523 6.523 0 011.838.603 6.145 6.145 0 012.656 2.662c.287.572.487 1.183.59 1.814.114.686.177 1.38.191 2.075.004.313.004.647.004.98.007.412.007.806.007 1.2v23.022c0 .4 0 .79-.007 1.182 0 .358 0 .687-.006 1.024a13.939 13.939 0 01-.188 2.038 6.291 6.291 0 01-.593 1.837 6.003 6.003 0 01-1.118 1.525 5.947 5.947 0 01-1.54 1.125 6.45 6.45 0 01-1.834.605 13.75 13.75 0 01-2.055.178c-.323.008-.66.013-.988.013l-1.192.002L9.29 43.037z" fill="#000"/><path d="M23.568 30.641c.817-.95 1.497-2.408 1.973-4.208h4.399a10.627 10.627 0 01-6.372 4.208zm-10.884-4.208h4.399c.475 1.8 1.155 3.256 1.97 4.208a10.634 10.634 0 01-6.37-4.208zm-.17-12.087h4.509c-.397 1.588-.636 3.426-.672 5.411h-5.635a10.495 10.495 0 011.798-5.41zm6.53-4.429c-.695.814-1.288 1.995-1.743 3.441h-4.025a10.63 10.63 0 015.768-3.44zm10.305 3.441h-4.026c-.457-1.454-1.056-2.639-1.755-3.453a10.605 10.605 0 015.78 3.453zm-3.077 6.4c-.036-1.986-.274-3.824-.672-5.412h4.515a10.534 10.534 0 011.786 5.411h-5.63zm0 .987h5.63a10.537 10.537 0 01-1.33 4.7h-4.8c.298-1.419.473-3.007.5-4.7zm-1.676-6.399c.397 1.515.65 3.345.688 5.411h-7.945c.038-2.066.292-3.896.688-5.41h6.569zM21.31 9.658c1.089 0 2.219 1.366 2.997 3.7h-5.993c.778-2.334 1.908-3.699 2.996-3.7zM10.72 20.745h5.629c.029 1.693.203 3.281.5 4.7h-4.8a10.55 10.55 0 01-1.33-4.7zm7.123 4.7c-.295-1.366-.477-2.95-.505-4.7h7.946c-.03 1.75-.211 3.334-.506 4.7h-6.935zm3.468 5.443h-.001c-1.2 0-2.453-1.663-3.226-4.455h6.453c-.772 2.792-2.026 4.455-3.226 4.455zm0-22.218h-.001a11.62 11.62 0 00-9.5 4.943 11.506 11.506 0 00-2.102 6.658c0 6.398 5.205 11.604 11.602 11.605h.002c6.398 0 11.603-5.206 11.603-11.605 0-6.397-5.205-11.6-11.603-11.6z" fill="#FFF"/><path d="M24.192 19.417v13.2l3.3-3.3 2.75 5.5s.744.237 1.1 0c.357-.238.71-.716.55-1.1-.756-1.816-2.75-5.5-2.75-5.5h3.85l-8.8-8.8z" fill="#FFF"/><path d="M24.192 18.317a1.099 1.099 0 00-1.1 1.1v13.2a1.099 1.099 0 001.878.778l2.22-2.221 2.068 4.135c.133.265.368.466.65.556.083.026.517.158.99.158.41 0 .766-.098 1.055-.29.742-.496 1.358-1.47.955-2.44-.447-1.072-1.292-2.74-1.938-3.976h2.023a1.099 1.099 0 00.777-1.878l-8.8-8.8a1.101 1.101 0 00-.778-.322m0 1.1l8.8 8.8h-3.85s1.994 3.684 2.75 5.5c.16.385-.193.863-.55 1.1-.12.079-.28.105-.443.105-.326 0-.656-.105-.656-.105l-2.75-5.5-3.301 3.3v-13.2" fill="#000"/><text font-family="Moderat-Medium, Moderat" font-size="9" font-weight="400" fill="#FFF"><tspan x="39" y="18">UTILISEZ VOTRE</tspan></text><text font-family="Moderat-Medium, Moderat" font-size="15" font-weight="400" fill="#FFF"><tspan x="39" y="32">navigateur web</tspan></text></g></svg>