<svg width="149" height="44" viewBox="0 0 149 44" xmlns="http://www.w3.org/2000/svg"><defs><linearGradient x1="91.476%" y1="4.946%" x2="-38.55%" y2="71.879%" id="app-google_fr_svg__a"><stop stop-color="#00A0FF" offset="0%"/><stop stop-color="#00A1FF" offset="1%"/><stop stop-color="#00BEFF" offset="26%"/><stop stop-color="#00D2FF" offset="51%"/><stop stop-color="#00DFFF" offset="76%"/><stop stop-color="#00E3FF" offset="100%"/></linearGradient><linearGradient x1="107.685%" y1="50%" x2="-130.64%" y2="50%" id="app-google_fr_svg__b"><stop stop-color="#FFE000" offset="0%"/><stop stop-color="#FFBD00" offset="41%"/><stop stop-color="orange" offset="78%"/><stop stop-color="#FF9C00" offset="100%"/></linearGradient><linearGradient x1="86.271%" y1="17.871%" x2="-50.18%" y2="194.64%" id="app-google_fr_svg__c"><stop stop-color="#FF3A44" offset="0%"/><stop stop-color="#C31162" offset="100%"/></linearGradient><linearGradient x1="-18.825%" y1="-54.03%" x2="42.086%" y2="24.928%" id="app-google_fr_svg__d"><stop stop-color="#32A071" offset="0%"/><stop stop-color="#2DA771" offset="7%"/><stop stop-color="#15CF74" offset="48%"/><stop stop-color="#06E775" offset="80%"/><stop stop-color="#00F076" offset="100%"/></linearGradient></defs><g fill="none" fill-rule="evenodd"><rect fill="#000" width="148.5" height="44" rx="5"/><path d="M143 .88a4.62 4.62 0 014.62 4.62v33a4.62 4.62 0 01-4.62 4.62H5.5A4.62 4.62 0 01.88 38.5v-33A4.62 4.62 0 015.5.88H143zm0-.88H5.5A5.5 5.5 0 000 5.5v33A5.5 5.5 0 005.5 44H143a5.5 5.5 0 005.5-5.5v-33A5.5 5.5 0 00143 0z" fill="#A6A6A6" fill-rule="nonzero"/><path d="M74.954 23.925a4.686 4.686 0 104.697 4.675 4.609 4.609 0 00-4.697-4.675zm0 7.513a2.838 2.838 0 112.64-2.838 2.706 2.706 0 01-2.64 2.838zm-10.252-7.513a4.686 4.686 0 104.697 4.675 4.609 4.609 0 00-4.697-4.675zm0 7.513a2.838 2.838 0 112.64-2.838 2.706 2.706 0 01-2.64 2.838zm-12.188-6.072v1.98h4.752a4.147 4.147 0 01-1.1 2.497 4.862 4.862 0 01-3.674 1.452 5.28 5.28 0 110-10.56 5.104 5.104 0 013.608 1.419l1.397-1.397a6.93 6.93 0 00-4.983-2.002 7.271 7.271 0 100 14.531 6.677 6.677 0 005.071-2.035 6.6 6.6 0 001.716-4.653 6.897 6.897 0 00-.099-1.232h-6.688zm49.841 1.54a4.4 4.4 0 00-4.004-2.981 4.4 4.4 0 00-4.4 4.675 4.653 4.653 0 008.536 2.607l-1.595-1.1a2.651 2.651 0 01-2.299 1.287 2.365 2.365 0 01-2.266-1.419l6.259-2.585-.231-.484zm-6.38 1.562a2.563 2.563 0 012.453-2.728 1.804 1.804 0 011.727.99l-4.18 1.738zM90.893 33h2.057V19.25h-2.057V33zm-3.366-8.03h-.077a3.234 3.234 0 00-2.464-1.045 4.686 4.686 0 000 9.361 3.168 3.168 0 002.464-1.1h.077v.671c0 1.793-.957 2.75-2.497 2.75a2.596 2.596 0 01-2.365-1.661l-1.782.737a4.4 4.4 0 004.147 2.772c2.409 0 4.4-1.419 4.4-4.873V24.2h-1.903v.77zm-2.365 6.468a2.838 2.838 0 010-5.665A2.629 2.629 0 0187.67 28.6a2.618 2.618 0 01-2.508 2.838zm26.829-12.188h-4.928V33h2.057v-5.214h2.871a4.279 4.279 0 100-8.536zm0 6.6h-2.871v-4.686h2.915a2.354 2.354 0 010 4.708l-.044-.022zm12.694-1.969a3.839 3.839 0 00-3.663 2.101l1.815.759a1.958 1.958 0 011.881-1.001 1.98 1.98 0 012.2 1.771v.132a4.598 4.598 0 00-2.145-.528c-1.958 0-3.96 1.1-3.96 3.102a3.179 3.179 0 003.421 3.025 2.915 2.915 0 002.618-1.342h.066V33h1.98v-5.291c0-2.409-1.826-3.806-4.169-3.806l-.044-.022zm-.253 7.535c-.671 0-1.606-.341-1.606-1.166 0-1.1 1.166-1.474 2.2-1.474.653-.016 1.3.143 1.87.462a2.486 2.486 0 01-2.42 2.2l-.044-.022zm11.682-7.216l-2.354 5.962h-.066l-2.442-5.962h-2.2l3.663 8.338-2.09 4.631h2.2l5.577-12.969h-2.288zm-18.48 8.8h2.046V19.25h-2.046V33z" fill="#FFF" fill-rule="nonzero"/><path d="M11.484 8.294A2.2 2.2 0 0011 9.834v24.332a2.134 2.134 0 00.517 1.54l.077.088L25.19 22.165v-.33L11.561 8.217l-.077.077z" fill="url(#app-google_fr_svg__a)"/><path d="M29.7 26.708l-4.51-4.543v-.33l4.51-4.543.099.066 5.401 3.058c1.54.869 1.54 2.299 0 3.179l-5.379 3.058-.121.055z" fill="url(#app-google_fr_svg__b)"/><path d="M29.832 26.653L25.19 22 11.484 35.706c.641.57 1.599.603 2.277.077l16.071-9.13" fill="url(#app-google_fr_svg__c)"/><path d="M29.832 17.358l-16.071-9.13a1.771 1.771 0 00-2.277.066L25.19 22l4.642-4.642z" fill="url(#app-google_fr_svg__d)"/><path d="M29.7 26.543l-15.939 9.075a1.826 1.826 0 01-2.2 0l-.077.077.077.088a1.826 1.826 0 002.2 0l16.071-9.13-.132-.11z" fill="#000" opacity=".2"/><path d="M11.484 35.552A2.2 2.2 0 0111 34.001v.165a2.134 2.134 0 00.517 1.54l.077-.077-.11-.077zM35.2 23.43l-5.5 3.113.099.11 5.401-3.069A1.925 1.925 0 0036.366 22a2.046 2.046 0 01-1.166 1.43z" fill="#000" opacity=".12"/><path d="M13.761 8.382L35.2 20.57A2.046 2.046 0 0136.366 22a1.925 1.925 0 00-1.166-1.584L13.761 8.228C12.232 7.348 11 8.074 11 9.834v.165c0-1.76 1.232-2.486 2.761-1.617z" fill="#FFF" opacity=".25"/><path d="M45.408 14.3V7.7h2.013a3.3 3.3 0 012.442.913A3.3 3.3 0 0150.776 11a3.3 3.3 0 01-.913 2.387 3.3 3.3 0 01-2.442.913h-2.013zm.847-.814h1.166c.667.034 1.32-.2 1.815-.649A2.497 2.497 0 0049.907 11a2.464 2.464 0 00-.671-1.826 2.475 2.475 0 00-1.815-.66h-1.166v4.972z" stroke="#FFF" stroke-width=".2" fill="#FFF" fill-rule="nonzero"/><path stroke="#FFF" stroke-width=".2" fill="#FFF" d="M51.964 14.3V7.7h.836v6.6zM56.177 14.443a2.464 2.464 0 01-1.397-.462 2.2 2.2 0 01-.902-1.32l.77-.319c.094.358.294.68.572.924.263.237.603.37.957.374.34.011.674-.093.946-.297a.913.913 0 00.396-.781 1.012 1.012 0 00-.396-.858 4.07 4.07 0 00-1.232-.561 3.157 3.157 0 01-1.331-.715 1.485 1.485 0 01-.451-1.1c0-.476.205-.928.561-1.243a2.376 2.376 0 012.827-.099c.317.226.555.545.682.913l-.77.319a1.155 1.155 0 00-.407-.572 1.265 1.265 0 00-.847-.275 1.342 1.342 0 00-.836.275.836.836 0 00-.341.682.737.737 0 00.319.616c.282.208.598.365.935.462.277.083.549.182.814.297.234.107.455.24.66.396.217.155.391.364.506.605.124.265.184.555.176.847.005.298-.063.592-.198.858a1.54 1.54 0 01-.528.594c-.215.15-.453.266-.704.341a2.684 2.684 0 01-.781.099z"/><path d="M60.5 14.3h-.847V7.7h2.2c.539-.01 1.06.192 1.452.561a1.903 1.903 0 010 2.805c-.392.369-.913.57-1.452.561H60.5V14.3zm0-3.487h1.419a1.1 1.1 0 00.781-.352 1.1 1.1 0 000-1.595 1.1 1.1 0 00-.858-.352H60.5v2.299zM70.4 13.442a3.421 3.421 0 01-4.84 0A3.3 3.3 0 0164.57 11a3.3 3.3 0 01.968-2.442 3.421 3.421 0 014.84 0c.642.649.995 1.53.979 2.442a3.3 3.3 0 01-.957 2.442zm-4.213-.55a2.442 2.442 0 001.793.748 2.409 2.409 0 001.793-.748c.489-.505.747-1.19.715-1.892a2.552 2.552 0 00-.737-1.892 2.409 2.409 0 00-1.793-.748 2.442 2.442 0 00-1.793.748A2.585 2.585 0 0065.439 11a2.585 2.585 0 00.726 1.892h.022z" stroke="#FFF" stroke-width=".2" fill="#FFF" fill-rule="nonzero"/><path stroke="#FFF" stroke-width=".2" fill="#FFF" d="M72.6 14.3V7.7h1.034l3.201 5.137h0V7.7h.858v6.6h-.891l-3.3-5.379h0V14.3zM79.2 14.3V7.7h.847v6.6z"/><path d="M81.499 14.3V7.7h2.387a1.98 1.98 0 011.342.506c.37.324.58.795.572 1.287.003.296-.081.587-.242.836a1.551 1.551 0 01-.649.539c.316.106.592.305.792.572.21.266.322.596.319.935a1.727 1.727 0 01-.594 1.342 2.013 2.013 0 01-1.408.539l-2.519.044zm.847-3.773h1.54c.292.017.576-.1.77-.319a.99.99 0 00.297-.693c.01-.262-.08-.518-.253-.715a.935.935 0 00-.737-.308h-1.617v2.035zm0 2.959h1.705c.305.012.6-.113.803-.341a1.1 1.1 0 00.297-.748 1.1 1.1 0 00-.308-.737 1.1 1.1 0 00-.825-.341h-1.672v2.167z" stroke="#FFF" stroke-width=".2" fill="#FFF" fill-rule="nonzero"/><path stroke="#FFF" stroke-width=".2" fill="#FFF" d="M87.164 14.3V7.7H88v5.786h2.86v.814zM95.788 8.514h-3.003v2.09h2.706v.792h-2.706v2.09h3.003v.814h-3.85V7.7h3.85zM100.914 14.443a2.519 2.519 0 01-1.408-.462 2.2 2.2 0 01-.891-1.32l.77-.319c.094.358.294.68.572.924.263.237.603.37.957.374.34.01.673-.095.946-.297a.913.913 0 00.396-.781 1.012 1.012 0 00-.396-.858c-.38-.254-.8-.444-1.243-.561a3.113 3.113 0 01-1.32-.715 1.441 1.441 0 01-.451-1.1c0-.476.205-.928.561-1.243a2.376 2.376 0 012.827-.099c.317.226.555.545.682.913l-.77.319a1.1 1.1 0 00-.418-.572 1.221 1.221 0 00-.836-.275 1.342 1.342 0 00-.836.275.847.847 0 00-.352.682.77.77 0 00.319.616c.284.204.6.36.935.462.281.081.557.18.825.297.233.11.454.242.66.396.217.155.391.364.506.605.115.267.17.556.165.847.008.297-.056.591-.187.858a1.54 1.54 0 01-.528.594c-.215.15-.453.266-.704.341a2.684 2.684 0 01-.781.099zM106.634 14.443a2.31 2.31 0 01-1.771-.715 2.629 2.629 0 01-.671-1.881V7.7h.847v4.18c-.033.475.112.946.407 1.32.302.333.74.51 1.188.484.442.025.871-.153 1.166-.484.289-.36.437-.814.418-1.276V7.7h.847v4.147a2.651 2.651 0 01-.66 1.881 2.277 2.277 0 01-1.771.715z"/><path d="M110.44 14.3V7.7h2.2c.539-.01 1.06.192 1.452.561.405.354.63.87.616 1.408 0 .448-.16.88-.451 1.221a1.936 1.936 0 01-1.1.66l1.848 2.75h-1.001l-1.804-2.673h-.935V14.3h-.825zm.847-3.465h1.364c.321.007.633-.112.869-.33a1.1 1.1 0 00.363-.836 1.199 1.199 0 00-.319-.803 1.1 1.1 0 00-.858-.352h-1.419v2.321z" stroke="#FFF" stroke-width=".2" fill="#FFF" fill-rule="nonzero"/></g></svg>