<svg baseProfile="tiny" xmlns="http://www.w3.org/2000/svg" width="28" height="28" viewBox="0 0 28 28"><path d="M14 2.5c3.7 0 4.2 0 5.7.1 1.4.1 2.1.3 2.6.5.7.3 1.1.6 1.6 1 .5.5.8 1 1 1.6.2.5.4 1.2.5 2.6.1 1.5.1 1.9.1 5.7s0 4.2-.1 5.7c-.1 1.4-.3 2.1-.5 2.6-.3.7-.6 1.1-1 1.6-.5.5-1 .8-1.6 1-.5.2-1.2.4-2.6.5-1.5.1-1.9.1-5.7.1s-4.2 0-5.7-.1c-1.4-.1-2.1-.3-2.6-.5-.7-.3-1.1-.6-1.6-1-.5-.5-.8-1-1-1.6-.2-.5-.4-1.2-.5-2.6-.1-1.5-.1-1.9-.1-5.7s0-4.2.1-5.7c.1-1.3.3-2.1.5-2.6.3-.7.6-1.1 1-1.6.5-.5 1-.8 1.6-1 .5-.2 1.3-.4 2.6-.5 1.5-.1 2-.1 5.7-.1M14 0c-3.8 0-4.3 0-5.8.1S5.7.4 4.8.7c-.9.4-1.7.9-2.5 1.6-.7.8-1.2 1.6-1.6 2.5-.3.9-.5 1.9-.6 3.4C0 9.7 0 10.2 0 14s0 4.3.1 5.8.3 2.5.7 3.4c.4.9.8 1.7 1.6 2.5S4 27 4.9 27.3c.9.3 1.9.6 3.4.7H14c3.8 0 4.3 0 5.8-.1s2.5-.3 3.4-.7c.9-.4 1.7-.8 2.5-1.6s1.3-1.6 1.6-2.5c.3-.9.6-1.9.7-3.4.1-1.5.1-2 .1-5.8s0-4.3-.1-5.8-.3-2.5-.7-3.4c-.4-.9-.8-1.7-1.6-2.5S24.1.9 23.2.6c-.9-.3-1.9-.6-3.4-.7-1.5.1-2 .1-5.8.1z"/><path d="M14 6.8c-4 0-7.2 3.2-7.2 7.2s3.2 7.2 7.2 7.2 7.2-3.2 7.2-7.2S18 6.8 14 6.8zm0 11.9c-2.6 0-4.7-2.1-4.7-4.7s2.1-4.7 4.7-4.7 4.7 2.1 4.7 4.7-2.1 4.7-4.7 4.7z"/><circle cx="21.5" cy="6.5" r="1.7"/></svg>