<svg baseProfile="tiny" xmlns="http://www.w3.org/2000/svg" width="28" height="28" viewBox="0 0 28 28"><path d="M24.5 0h-21C1.6 0 0 1.6 0 3.5v21C0 26.4 1.6 28 3.5 28h21c1.9 0 3.5-1.6 3.5-3.5v-21C28 1.6 26.4 0 24.5 0zM21 10.4v.5c0 4.7-3.6 10.2-10.2 10.2-2 0-3.9-.6-5.5-1.6h.9c1.7 0 3.2-.6 4.5-1.5-1.7 0-3-1-3.5-2.5.2 0 .4.1.7.1.3 0 .6 0 .9-.1-1.6-.4-2.8-1.8-2.8-3.6.5.3 1 .4 1.6.4-1-.6-1.6-1.7-1.6-3 0-.7.2-1.3.5-1.8 1.8 2.2 4.4 3.6 7.4 3.8-.1-.3-.1-.5-.1-.8 0-2 1.6-3.6 3.6-3.6 1 0 2 .4 2.6 1.1.8-.2 1.6-.5 2.3-.9-.3.8-.8 1.5-1.6 2 .7-.1 1.4-.3 2.1-.6-.5.8-1.1 1.4-1.8 1.9z"/></svg>